<svg width="280" height="281" viewBox="0 0 280 281" fill="none" xmlns="http://www.w3.org/2000/svg">
<path d="M180.597 54.6644C180.597 54.6644 150.648 92.6001 102.729 69.9717C54.8104 47.3434 6.89143 108.573 48.1549 145.843C89.4184 183.113 49.039 203.593 77.0718 226.435C108.933 252.396 136.672 199.752 161.962 211.732C217.779 238.171 259.131 227.705 249.813 197.09C233.457 143.35 212.543 139.853 228.516 111.901C244.489 83.9481 209.236 25.8276 180.597 54.6644Z" fill="#F3D7C8"/>
<path d="M164.292 159.584L161.926 172.287L150.656 232.672L130.355 228.882L143.372 159.127L143.991 155.802L164.292 159.584Z" fill="#FC7735"/>
<path d="M214.288 129.206L207.288 166.735C207.267 166.845 207.225 166.95 207.164 167.043C207.103 167.137 207.024 167.218 206.932 167.281C206.84 167.344 206.736 167.389 206.626 167.412C206.517 167.435 206.404 167.436 206.294 167.416L107.949 149.073L119.524 87.0115L194.204 100.94C207.739 103.464 216.729 116.117 214.288 129.206Z" fill="#F8A074"/>
<path d="M140.53 116.612L133.584 153.849L81.9629 144.221L88.908 106.984C91.4651 93.2739 105.094 84.3146 119.349 86.9732C133.604 89.6318 143.087 102.902 140.53 116.612Z" fill="#FC7735"/>
<path d="M164.562 134.019C160.757 133.31 158.248 129.612 158.964 125.773C159.68 121.934 163.354 119.389 167.158 120.099C168.37 120.327 169.501 120.872 170.435 121.678C171.369 122.485 172.072 123.524 172.474 124.691L220.526 133.653L219.228 140.614L171.176 131.651C170.38 132.595 169.35 133.311 168.188 133.727C167.026 134.143 165.775 134.244 164.562 134.019Z" fill="#FF5B0B"/>
<path d="M138.816 117.296L132.049 153.577L83.4199 144.507L90.1871 108.226C92.6784 94.8687 105.585 86.07 119.013 88.5746C132.442 91.0792 141.307 103.939 138.816 117.296Z" fill="#FF5B0B"/>
<path d="M165.923 130.503C167.878 130.503 169.463 128.918 169.463 126.963C169.463 125.008 167.878 123.423 165.923 123.423C163.968 123.423 162.383 125.008 162.383 126.963C162.383 128.918 163.968 130.503 165.923 130.503Z" fill="white"/>
<path d="M221.08 133.629L216.835 156.387C216.817 156.485 216.761 156.572 216.678 156.628C216.596 156.684 216.495 156.706 216.397 156.687L205.239 154.606C205.22 154.603 205.203 154.592 205.191 154.575C205.18 154.559 205.176 154.539 205.18 154.52L209.48 131.465C209.483 131.446 209.494 131.429 209.511 131.417C209.527 131.406 209.547 131.402 209.566 131.406L221.021 133.542C221.04 133.546 221.057 133.557 221.068 133.573C221.08 133.589 221.084 133.609 221.08 133.629Z" fill="#FC7735"/>
<path d="M99.5128 131.487C99.9827 134.944 103.776 139.052 103.776 139.052C97.9961 139.462 94.8661 136.193 93.5193 134.207C91.8542 134.689 90.1428 134.992 88.4138 135.113C76.5487 135.954 66.3346 128.208 65.5969 117.803C64.8592 107.397 73.8787 98.2876 85.7439 97.4467C97.609 96.6059 107.822 104.352 108.56 114.757C109.04 121.526 105.388 127.747 99.5128 131.487Z" fill="white"/>
<path d="M133.633 153.872C133.096 155.232 123.27 195.747 91.4738 189.817C56.6069 183.914 81.8269 144.21 81.8269 144.21L133.633 153.872Z" fill="#F8A074"/>
<path d="M87.079 119.85C88.7083 119.85 90.0291 118.529 90.0291 116.9C90.0291 115.27 88.7083 113.949 87.079 113.949C85.4497 113.949 84.1289 115.27 84.1289 116.9C84.1289 118.529 85.4497 119.85 87.079 119.85Z" fill="#FC7735"/>
<path d="M73.8702 118.563C75.5093 118.563 76.8381 117.234 76.8381 115.595C76.8381 113.956 75.5093 112.627 73.8702 112.627C72.2311 112.627 70.9023 113.956 70.9023 115.595C70.9023 117.234 72.2311 118.563 73.8702 118.563Z" fill="#FC7735"/>
<path d="M100.159 121.107C101.798 121.107 103.127 119.778 103.127 118.139C103.127 116.5 101.798 115.171 100.159 115.171C98.5202 115.171 97.1914 116.5 97.1914 118.139C97.1914 119.778 98.5202 121.107 100.159 121.107Z" fill="#FC7735"/>
<path d="M164.291 159.584L161.925 172.287L143.371 159.127L143.99 155.802L164.291 159.584Z" fill="#FF5B0B"/>
</svg>
